<svg width="15" height="15" viewBox="0 0 15 15" fill="none" xmlns="http://www.w3.org/2000/svg">
<path d="M12.4912 8.11847C12.4912 11.2413 10.3052 12.8027 7.70705 13.7083C7.57099 13.7544 7.42321 13.7522 7.28859 13.702C4.68418 12.8027 2.49823 11.2413 2.49823 8.11847V3.74656C2.49823 3.58092 2.56403 3.42206 2.68116 3.30493C2.79829 3.1878 2.95715 3.122 3.12279 3.122C4.3719 3.122 5.9333 2.37253 7.02003 1.4232C7.15235 1.31016 7.32067 1.24805 7.4947 1.24805C7.66873 1.24805 7.83705 1.31016 7.96936 1.4232C9.06234 2.37878 10.6175 3.122 11.8666 3.122C12.0322 3.122 12.1911 3.1878 12.3082 3.30493C12.4254 3.42206 12.4912 3.58092 12.4912 3.74656V8.11847Z" stroke="#E17100" stroke-width="1.24912" stroke-linecap="round" stroke-linejoin="round"/>
</svg>
