<svg width="17" height="17" viewBox="0 0 17 17" fill="none" xmlns="http://www.w3.org/2000/svg">
<g clip-path="url(#clip0_45_9756)">
<path d="M14.1644 9.20672C14.1644 12.7478 11.6856 14.5183 8.73941 15.5453C8.58514 15.5975 8.41755 15.595 8.26491 15.5382C5.31164 14.5183 2.83289 12.7478 2.83289 9.20672V4.2492C2.83289 4.06137 2.9075 3.88123 3.04032 3.74842C3.17313 3.6156 3.35327 3.54098 3.5411 3.54098C4.95754 3.54098 6.72808 2.69112 7.96037 1.61463C8.11041 1.48645 8.30128 1.41602 8.49862 1.41602C8.69596 1.41602 8.88682 1.48645 9.03686 1.61463C10.2762 2.69821 12.0397 3.54098 13.4561 3.54098C13.644 3.54098 13.8241 3.6156 13.9569 3.74842C14.0897 3.88123 14.1644 4.06137 14.1644 4.2492V9.20672Z" stroke="white" stroke-width="1.41643" stroke-linecap="round" stroke-linejoin="round"/>
</g>
<defs>
<clipPath id="clip0_45_9756">
<rect width="16.9972" height="16.9972" fill="white"/>
</clipPath>
</defs>
</svg>
