<svg width="28" height="28" viewBox="0 0 28 28" fill="none" xmlns="http://www.w3.org/2000/svg">
<path d="M16.9096 4.66455H11.0787L8.16323 8.16309H4.66469C4.04611 8.16309 3.45287 8.40882 3.01547 8.84622C2.57807 9.28362 2.33234 9.87687 2.33234 10.4954V20.9911C2.33234 21.6096 2.57807 22.2029 3.01547 22.6403C3.45287 23.0777 4.04611 23.3234 4.66469 23.3234H23.3236C23.9421 23.3234 24.5354 23.0777 24.9728 22.6403C25.4102 22.2029 25.6559 21.6096 25.6559 20.9911V10.4954C25.6559 9.87687 25.4102 9.28362 24.9728 8.84622C24.5354 8.40882 23.9421 8.16309 23.3236 8.16309H19.825L16.9096 4.66455Z" stroke="white" stroke-opacity="0.6" stroke-width="2.33236" stroke-linecap="round" stroke-linejoin="round"/>
<path d="M13.9941 18.6587C15.9263 18.6587 17.4927 17.0923 17.4927 15.1602C17.4927 13.228 15.9263 11.6616 13.9941 11.6616C12.062 11.6616 10.4956 13.228 10.4956 15.1602C10.4956 17.0923 12.062 18.6587 13.9941 18.6587Z" stroke="white" stroke-opacity="0.6" stroke-width="2.33236" stroke-linecap="round" stroke-linejoin="round"/>
</svg>
