<svg width="55" height="48" viewBox="0 0 55 48" fill="none" xmlns="http://www.w3.org/2000/svg">
<path d="M36.5688 4.52246C36.9549 4.52246 37.2688 4.83564 37.269 5.22168C37.269 5.60788 36.9551 5.92188 36.5688 5.92188C33.3069 5.92202 30.3792 8.10305 29.4497 11.2256C29.3479 11.5697 29.0046 11.7742 28.6577 11.7119L28.6528 11.7188L28.5796 11.6973C28.2095 11.5869 27.9984 11.1975 28.1089 10.8271C29.1907 7.19202 32.5598 4.52261 36.5688 4.52246Z" fill="url(#paint0_linear_651_1176)" stroke="#F9FFF9" stroke-width="0.237978"/>
<path d="M44.6952 33.6646H41.2125C40.892 33.6646 40.632 33.4047 40.632 33.0842C40.632 32.7637 40.892 32.5037 41.2125 32.5037H44.6952C49.4959 32.5037 53.4019 28.5977 53.4019 23.797C53.4019 18.9962 49.4959 15.0902 44.6952 15.0902H44.6114C44.4431 15.0902 44.283 15.0172 44.1728 14.8899C44.0625 14.7627 44.0127 14.5939 44.0368 14.4272C44.0886 14.0657 44.1147 13.7025 44.1147 13.3488C44.1147 9.18827 40.7294 5.80293 36.5688 5.80293C34.9502 5.80293 33.4066 6.30875 32.1047 7.26607C31.8186 7.47628 31.4123 7.383 31.2468 7.0683C27.5597 0.0473569 17.9295 -0.895485 12.9366 5.21213C10.8334 7.78517 10.007 11.1323 10.6692 14.3945C10.7421 14.7548 10.4664 15.0906 10.1003 15.0906H9.86773C5.06702 15.0906 1.16096 18.9967 1.16096 23.7974C1.16096 28.5981 5.06702 32.5042 9.86773 32.5042H13.3504C13.6709 32.5042 13.9308 32.7641 13.9308 33.0846C13.9308 33.4051 13.6709 33.6651 13.3504 33.6651H9.86773C4.42678 33.6651 0 29.2383 0 23.7974C0 18.509 4.1817 14.1789 9.41207 13.94C8.92076 10.5556 9.86026 7.14167 12.0378 4.47745C17.3833 -2.06215 27.6276 -1.32915 31.9581 5.96298C33.3396 5.09686 34.9205 4.64249 36.5686 4.64249C41.6094 4.64249 45.6038 8.93288 45.2543 13.9454C50.4364 14.2361 54.5626 18.5434 54.5626 23.7969C54.5626 29.2383 50.1358 33.6647 44.6949 33.6647L44.6952 33.6646Z" fill="url(#paint1_linear_651_1176)"/>
<path d="M27.2039 18.126C35.2711 18.1261 41.8337 24.6895 41.8337 32.7568C41.8336 40.8239 35.271 47.3866 27.2039 47.3867C19.1367 47.3867 12.5731 40.8241 12.573 32.7568C12.573 24.6895 19.1365 18.126 27.2039 18.126ZM27.2039 19.5254C19.9082 19.5254 13.9724 25.4613 13.9724 32.7568C13.9726 40.0523 19.9084 45.9883 27.2039 45.9883C34.4992 45.9881 40.4352 40.0521 40.4353 32.7568C40.4353 25.4613 34.4993 19.5255 27.2039 19.5254Z" fill="url(#paint2_linear_651_1176)" stroke="#F9FFF9" stroke-width="0.237978"/>
<path d="M27.469 27.0049C27.7693 27.0049 28.0129 27.2485 28.0129 27.5488V38.5977C28.0129 38.8984 27.7693 39.1416 27.469 39.1416C27.1687 39.1415 26.925 38.898 26.925 38.5977V27.5488C26.9251 27.2486 27.1688 27.005 27.469 27.0049Z" fill="url(#paint3_linear_651_1176)" stroke="url(#paint4_linear_651_1176)" stroke-width="0.237978"/>
<path d="M27.0837 27.165C27.2959 26.9525 27.6408 26.9529 27.8533 27.165L31.2537 30.5654C31.4656 30.7778 31.4656 31.1216 31.2537 31.334C31.1475 31.4406 31.0075 31.4931 30.8689 31.4932C30.73 31.4932 30.5902 31.4401 30.4841 31.334L27.4685 28.3193L24.4539 31.334C24.2416 31.5466 23.8968 31.5464 23.6843 31.334C23.4723 31.1216 23.4723 30.7779 23.6843 30.5654L27.0837 27.165Z" fill="url(#paint5_linear_651_1176)" stroke="url(#paint6_linear_651_1176)" stroke-width="0.237978"/>
<defs>
<linearGradient id="paint0_linear_651_1176" x1="28.1987" y1="4.6416" x2="34.9511" y2="13.3183" gradientUnits="userSpaceOnUse">
<stop stop-color="#A41F13"/>
<stop offset="1" stop-color="#C92A1D"/>
</linearGradient>
<linearGradient id="paint1_linear_651_1176" x1="0" y1="0" x2="30.0884" y2="48.7657" gradientUnits="userSpaceOnUse">
<stop stop-color="#A41F13"/>
<stop offset="1" stop-color="#C92A1D"/>
</linearGradient>
<linearGradient id="paint2_linear_651_1176" x1="12.6921" y1="18.2451" x2="41.715" y2="47.268" gradientUnits="userSpaceOnUse">
<stop stop-color="#A41F13"/>
<stop offset="1" stop-color="#C92A1D"/>
</linearGradient>
<linearGradient id="paint3_linear_651_1176" x1="27.0442" y1="27.124" x2="28.7354" y2="27.2448" gradientUnits="userSpaceOnUse">
<stop stop-color="#A41F13"/>
<stop offset="1" stop-color="#C92A1D"/>
</linearGradient>
<linearGradient id="paint4_linear_651_1176" x1="27.0442" y1="27.124" x2="28.7354" y2="27.2448" gradientUnits="userSpaceOnUse">
<stop stop-color="#A41F13"/>
<stop offset="1" stop-color="#C92A1D"/>
</linearGradient>
<linearGradient id="paint5_linear_651_1176" x1="23.6443" y1="27.125" x2="27.2525" y2="33.6197" gradientUnits="userSpaceOnUse">
<stop stop-color="#A41F13"/>
<stop offset="1" stop-color="#C92A1D"/>
</linearGradient>
<linearGradient id="paint6_linear_651_1176" x1="23.6443" y1="27.125" x2="27.2525" y2="33.6197" gradientUnits="userSpaceOnUse">
<stop stop-color="#A41F13"/>
<stop offset="1" stop-color="#C92A1D"/>
</linearGradient>
</defs>
</svg>
