<svg width="22" height="27" viewBox="0 0 22 27" fill="none" xmlns="http://www.w3.org/2000/svg">
<g clip-path="url(#clip0_590_561)">
<path d="M12.1501 17.2861V13.2861C12.1501 13.1535 12.0974 13.0263 12.0036 12.9326C11.9099 12.8388 11.7827 12.7861 11.6501 12.7861H9.65009C9.51748 12.7861 9.3903 12.8388 9.29653 12.9326C9.20276 13.0263 9.15009 13.1535 9.15009 13.2861V17.2861" stroke="#27AE60" stroke-linecap="round" stroke-linejoin="round"/>
<path d="M6.15002 11.7859C6.14999 11.6404 6.18169 11.4967 6.24292 11.3647C6.30415 11.2328 6.39342 11.1158 6.50452 11.0219L10.0045 8.02237C10.185 7.86983 10.4137 7.78613 10.65 7.78613C10.8863 7.78613 11.115 7.86983 11.2955 8.02237L14.7955 11.0219C14.9066 11.1158 14.9959 11.2328 15.0571 11.3647C15.1184 11.4967 15.1501 11.6404 15.15 11.7859V16.2859C15.15 16.5511 15.0447 16.8054 14.8571 16.993C14.6696 17.1805 14.4152 17.2859 14.15 17.2859H7.15002C6.88481 17.2859 6.63045 17.1805 6.44292 16.993C6.25538 16.8054 6.15002 16.5511 6.15002 16.2859V11.7859Z" stroke="#27AE60" stroke-linecap="round" stroke-linejoin="round"/>
</g>
<path d="M0.190405 4.32651C-0.0634357 4.58035 -0.0634357 4.99191 0.190405 5.24575L4.32698 9.38233C4.58082 9.63617 4.99238 9.63617 5.24622 9.38233C5.50006 9.12849 5.50006 8.71693 5.24622 8.46309L1.56926 4.78613L5.24622 1.10918C5.50006 0.855337 5.50006 0.443779 5.24622 0.189939C4.99238 -0.0639019 4.58082 -0.0639019 4.32698 0.189939L0.190405 4.32651ZM21.1096 22.2458C21.3635 21.9919 21.3635 21.5804 21.1096 21.3265L16.9731 17.1899C16.7192 16.9361 16.3077 16.9361 16.0538 17.1899C15.8 17.4438 15.8 17.8553 16.0538 18.1092L19.7308 21.7861L16.0538 25.4631C15.8 25.7169 15.8 26.1285 16.0538 26.3823C16.3077 26.6362 16.7192 26.6362 16.9731 26.3823L21.1096 22.2458ZM19.65 11.7861H20.3V8.78613H19.65H19V11.7861H19.65ZM15.65 4.78613V4.13613H0.650024V4.78613V5.43613H15.65V4.78613ZM1.65002 13.7861H1.00002V17.7861H1.65002H2.30002V13.7861H1.65002ZM5.65002 21.7861V22.4361H20.65V21.7861V21.1361H5.65002V21.7861ZM1.65002 17.7861H1.00002C1.00002 20.3543 3.0819 22.4361 5.65002 22.4361V21.7861V21.1361C3.79987 21.1361 2.30002 19.6363 2.30002 17.7861H1.65002ZM19.65 8.78613H20.3C20.3 6.21801 18.2181 4.13613 15.65 4.13613V4.78613V5.43613C17.5002 5.43613 19 6.93598 19 8.78613H19.65Z" fill="#27AE60"/>
<defs>
<clipPath id="clip0_590_561">
<rect width="12" height="12" fill="white" transform="translate(4.65002 6.78613)"/>
</clipPath>
</defs>
</svg>
