<svg width="7" height="7" viewBox="0 0 7 7" fill="none" xmlns="http://www.w3.org/2000/svg">
<path d="M5.93113 0.908417H5.13822C5.12762 0.904741 5.11659 0.902353 5.10541 0.901255H4.26118V0.201073C4.26122 0.148454 4.2406 0.0979358 4.20383 0.0603542C4.16702 0.0227763 4.11698 0.00109768 4.06441 0H2.0678C2.01446 0 1.96332 0.021153 1.92565 0.0588739C1.88793 0.0965948 1.86673 0.147734 1.86673 0.201072V0.901254H1.02678C1.01561 0.902352 1.00458 0.904739 0.993979 0.908416H0.201068C0.129207 0.908416 0.062831 0.94671 0.0269302 1.00893C-0.00897673 1.07114 -0.00897673 1.14778 0.0269302 1.20999C0.0628371 1.27221 0.129208 1.31055 0.201068 1.31055H0.847063L1.36905 6.16639C1.37464 6.21581 1.39822 6.26141 1.43532 6.2946C1.47238 6.32773 1.52036 6.34602 1.57011 6.34607H4.5649C4.61413 6.34535 4.6614 6.32668 4.69793 6.29364C4.73441 6.26055 4.75757 6.21533 4.76311 6.16639L5.28505 1.31764H5.93109C6.00295 1.31764 6.06933 1.27935 6.10523 1.21713C6.14113 1.15491 6.14114 1.07823 6.10523 1.01606C6.06932 0.953847 6.00295 0.915503 5.93109 0.915503L5.93113 0.908417ZM2.27321 0.402139H3.85898V0.901254H2.27321V0.402139ZM4.38239 5.94104H1.74979L1.25067 1.31769H4.88146L4.38239 5.94104Z" fill="#E41D1D"/>
<path d="M3.0663 5.47023C3.11964 5.47023 3.17078 5.44903 3.2085 5.41136C3.24622 5.37364 3.26737 5.3225 3.26737 5.26916V1.98919C3.26737 1.91733 3.22908 1.85095 3.16686 1.81505C3.10465 1.7791 3.02796 1.7791 2.96575 1.81505C2.90353 1.85096 2.86523 1.91733 2.86523 1.98919V5.26916C2.86523 5.32249 2.88639 5.37363 2.92411 5.41136C2.96183 5.44903 3.01297 5.47023 3.06631 5.47023H3.0663Z" fill="#E41D1D"/>
<path d="M2.27506 5.46923H2.28361C2.33671 5.46703 2.38675 5.44387 2.42285 5.40486C2.4589 5.36585 2.4781 5.31414 2.47614 5.26104L2.3549 1.98107L2.35495 1.98102C2.35385 1.92731 2.33089 1.87631 2.2913 1.83993C2.25167 1.80359 2.19896 1.78502 2.14529 1.7885C2.0922 1.79075 2.04216 1.8139 2.0061 1.85291C1.97 1.89192 1.95086 1.94364 1.95277 1.99674L2.074 5.27671C2.07653 5.32842 2.09878 5.37722 2.13622 5.41302C2.1736 5.44879 2.22331 5.46894 2.27507 5.46922L2.27506 5.46923Z" fill="#E41D1D"/>
<path d="M3.85047 5.46932H3.85758C3.91058 5.47051 3.96191 5.45084 4.00058 5.4146C4.03921 5.37831 4.06213 5.32832 4.06438 5.27536L4.18561 1.99539H4.18556C4.18752 1.94229 4.16833 1.89058 4.13228 1.85157C4.09618 1.81256 4.04614 1.7894 3.99304 1.78715C3.93875 1.78157 3.8846 1.79909 3.84387 1.83547C3.80314 1.87181 3.77965 1.92367 3.77912 1.9783L3.65646 5.25826H3.65651C3.65379 5.31208 3.67279 5.36474 3.70927 5.40442C3.7457 5.4441 3.7966 5.4675 3.85046 5.46931L3.85047 5.46932Z" fill="#E41D1D"/>
</svg>
