<svg width="26" height="26" viewBox="0 0 26 26" fill="none" xmlns="http://www.w3.org/2000/svg">
<path d="M15.6709 2.08984H6.26829C5.71413 2.08984 5.18267 2.30998 4.79082 2.70183C4.39897 3.09368 4.17883 3.62514 4.17883 4.1793V20.895C4.17883 21.4491 4.39897 21.9806 4.79082 22.3725C5.18267 22.7643 5.71413 22.9844 6.26829 22.9844H18.8051C19.3592 22.9844 19.8907 22.7643 20.2825 22.3725C20.6744 21.9806 20.8945 21.4491 20.8945 20.895V7.31349L15.6709 2.08984Z" stroke="#A41F13" stroke-width="2.08946" stroke-linecap="round" stroke-linejoin="round"/>
<path d="M14.6262 2.08984V6.26876C14.6262 6.82292 14.8464 7.35439 15.2382 7.74624C15.6301 8.13809 16.1615 8.35822 16.7157 8.35822H20.8946" stroke="#A41F13" stroke-width="2.08946" stroke-linecap="round" stroke-linejoin="round"/>
<path d="M10.4481 9.40234H8.35785" stroke="#A41F13" stroke-width="2.08946" stroke-linecap="round" stroke-linejoin="round"/>
<path d="M16.7157 13.582H8.35785" stroke="#A41F13" stroke-width="2.08946" stroke-linecap="round" stroke-linejoin="round"/>
<path d="M16.7157 17.7598H8.35785" stroke="#A41F13" stroke-width="2.08946" stroke-linecap="round" stroke-linejoin="round"/>
</svg>
