<svg width="26" height="26" viewBox="0 0 26 26" fill="none" xmlns="http://www.w3.org/2000/svg">
<path d="M15.6709 2.08887H6.26829C5.71413 2.08887 5.18267 2.30901 4.79082 2.70086C4.39897 3.09271 4.17883 3.62417 4.17883 4.17833V20.894C4.17883 21.4482 4.39897 21.9796 4.79082 22.3715C5.18267 22.7633 5.71413 22.9835 6.26829 22.9835H18.8051C19.3592 22.9835 19.8907 22.7633 20.2825 22.3715C20.6744 21.9796 20.8945 21.4482 20.8945 20.894V7.31252L15.6709 2.08887Z" stroke="#6B7280" stroke-width="2.08946" stroke-linecap="round" stroke-linejoin="round"/>
<path d="M14.6262 2.08887V6.26779C14.6262 6.82195 14.8464 7.35341 15.2382 7.74526C15.6301 8.13711 16.1615 8.35725 16.7157 8.35725H20.8946" stroke="#6B7280" stroke-width="2.08946" stroke-linecap="round" stroke-linejoin="round"/>
<path d="M10.4481 9.40234H8.35785" stroke="#6B7280" stroke-width="2.08946" stroke-linecap="round" stroke-linejoin="round"/>
<path d="M16.7157 13.5815H8.35785" stroke="#6B7280" stroke-width="2.08946" stroke-linecap="round" stroke-linejoin="round"/>
<path d="M16.7157 17.7603H8.35785" stroke="#6B7280" stroke-width="2.08946" stroke-linecap="round" stroke-linejoin="round"/>
</svg>
