<svg width="16" height="16" viewBox="0 0 16 16" fill="none" xmlns="http://www.w3.org/2000/svg">
<path d="M2.66556 1.33203V14.6598L3.99833 13.9934L5.33111 14.6598L6.66388 13.9934L7.99666 14.6598L9.32943 13.9934L10.6622 14.6598L11.995 13.9934L13.3278 14.6598V1.33203L11.995 1.99842L10.6622 1.33203L9.32943 1.99842L7.99666 1.33203L6.66388 1.99842L5.33111 1.33203L3.99833 1.99842L2.66556 1.33203Z" stroke="#E17100" stroke-width="1.33277" stroke-linecap="round" stroke-linejoin="round"/>
<path d="M10.6622 5.33203H6.66386C6.31039 5.33203 5.97139 5.47245 5.72145 5.72239C5.4715 5.97234 5.33109 6.31133 5.33109 6.66481C5.33109 7.01828 5.4715 7.35728 5.72145 7.60722C5.97139 7.85716 6.31039 7.99758 6.66386 7.99758H9.32941C9.68288 7.99758 10.0219 8.138 10.2718 8.38794C10.5218 8.63789 10.6622 8.97688 10.6622 9.33036C10.6622 9.68383 10.5218 10.0228 10.2718 10.2728C10.0219 10.5227 9.68288 10.6631 9.32941 10.6631H5.33109" stroke="#E17100" stroke-width="1.33277" stroke-linecap="round" stroke-linejoin="round"/>
<path d="M7.99664 11.6623V4.33203" stroke="#E17100" stroke-width="1.33277" stroke-linecap="round" stroke-linejoin="round"/>
</svg>
