<svg width="20" height="20" viewBox="0 0 20 20" fill="none" xmlns="http://www.w3.org/2000/svg">
<path d="M14.9938 4.16498L12.983 2.15415C12.6706 1.84169 12.2469 1.66611 11.8051 1.66602H4.99795C4.5561 1.66602 4.13235 1.84154 3.81992 2.15397C3.50749 2.4664 3.33197 2.89015 3.33197 3.33199V16.6598C3.33197 17.1016 3.50749 17.5254 3.81992 17.8378C4.13235 18.1502 4.5561 18.3258 4.99795 18.3258H14.9938C15.4356 18.3258 15.8594 18.1502 16.1718 17.8378C16.4842 17.5254 16.6598 17.1016 16.6598 16.6598" stroke="#7A1710" stroke-width="1.66597" stroke-linecap="round" stroke-linejoin="round"/>
<path d="M17.8076 10.5171C18.1394 10.1853 18.3258 9.73524 18.3258 9.26597C18.3258 8.7967 18.1394 8.34665 17.8076 8.01482C17.4758 7.683 17.0257 7.49658 16.5564 7.49658C16.0872 7.49658 15.6371 7.683 15.3053 8.01482L11.965 11.3568C11.767 11.5547 11.622 11.7994 11.5435 12.0681L10.8463 14.4588C10.8254 14.5305 10.8242 14.6065 10.8427 14.6788C10.8612 14.7511 10.8988 14.8171 10.9516 14.8699C11.0044 14.9227 11.0705 14.9604 11.1428 14.9789C11.2151 14.9974 11.2911 14.9962 11.3628 14.9753L13.7534 14.2781C14.0222 14.1996 14.2669 14.0546 14.4648 13.8566L17.8076 10.5171Z" stroke="#7A1710" stroke-width="1.66597" stroke-linecap="round" stroke-linejoin="round"/>
<path d="M6.66388 14.9937H7.49687" stroke="#7A1710" stroke-width="1.66597" stroke-linecap="round" stroke-linejoin="round"/>
</svg>
