<svg width="15" height="15" viewBox="0 0 15 15" fill="none" xmlns="http://www.w3.org/2000/svg">
<path d="M12.4912 3.74805H2.49823C1.80836 3.74805 1.24911 4.3073 1.24911 4.99716V9.99363C1.24911 10.6835 1.80836 11.2427 2.49823 11.2427H12.4912C13.181 11.2427 13.7403 10.6835 13.7403 9.99363V4.99716C13.7403 4.3073 13.181 3.74805 12.4912 3.74805Z" stroke="white" stroke-width="1.24912" stroke-linecap="round" stroke-linejoin="round"/>
<path d="M7.49469 8.74433C8.18456 8.74433 8.74381 8.18508 8.74381 7.49521C8.74381 6.80534 8.18456 6.24609 7.49469 6.24609C6.80482 6.24609 6.24557 6.80534 6.24557 7.49521C6.24557 8.18508 6.80482 8.74433 7.49469 8.74433Z" stroke="white" stroke-width="1.24912" stroke-linecap="round" stroke-linejoin="round"/>
<path d="M3.74734 7.49414H3.75359M11.242 7.49414H11.2483" stroke="white" stroke-width="1.24912" stroke-linecap="round" stroke-linejoin="round"/>
</svg>
