<svg width="16" height="16" viewBox="0 0 16 16" fill="none" xmlns="http://www.w3.org/2000/svg">
<g clip-path="url(#clip0_41_4068)">
<path d="M9.99582 7.99609H6.66388" stroke="#6A6460" stroke-width="1.33277" stroke-linecap="round" stroke-linejoin="round"/>
<path d="M9.99582 5.33203H6.66388" stroke="#6A6460" stroke-width="1.33277" stroke-linecap="round" stroke-linejoin="round"/>
<path d="M12.6614 11.3294V3.33277C12.6614 2.9793 12.521 2.6403 12.271 2.39036C12.0211 2.14042 11.6821 2 11.3286 2H2.66556" stroke="#6A6460" stroke-width="1.33277" stroke-linecap="round" stroke-linejoin="round"/>
<path d="M5.33109 13.995H13.3277C13.6812 13.995 14.0202 13.8546 14.2702 13.6046C14.5201 13.3547 14.6605 13.0157 14.6605 12.6622V11.9958C14.6605 11.8191 14.5903 11.6496 14.4653 11.5246C14.3404 11.3996 14.1709 11.3294 13.9941 11.3294H7.33025C7.15351 11.3294 6.98402 11.3996 6.85904 11.5246C6.73407 11.6496 6.66386 11.8191 6.66386 11.9958V12.6622C6.66386 13.0157 6.52345 13.3547 6.2735 13.6046C6.02356 13.8546 5.68456 13.995 5.33109 13.995ZM5.33109 13.995C4.97761 13.995 4.63862 13.8546 4.38867 13.6046C4.13873 13.3547 3.99831 13.0157 3.99831 12.6622V3.33277C3.99831 2.9793 3.8579 2.6403 3.60795 2.39036C3.35801 2.14042 3.01901 2 2.66554 2C2.31206 2 1.97307 2.14042 1.72312 2.39036C1.47318 2.6403 1.33276 2.9793 1.33276 3.33277V4.66555C1.33276 4.84229 1.40297 5.01179 1.52794 5.13676C1.65292 5.26173 1.82241 5.33194 1.99915 5.33194H3.99831" stroke="#6A6460" stroke-width="1.33277" stroke-linecap="round" stroke-linejoin="round"/>
</g>
<defs>
<clipPath id="clip0_41_4068">
<rect width="15.9933" height="15.9933" fill="white"/>
</clipPath>
</defs>
</svg>
