<svg width="22" height="22" viewBox="0 0 22 22" fill="none" xmlns="http://www.w3.org/2000/svg">
<path d="M9.10874 14.208C9.0269 13.8907 8.86155 13.6012 8.6299 13.3696C8.39824 13.1379 8.10874 12.9726 7.79152 12.8907L2.16789 11.4406C2.07195 11.4134 1.98751 11.3556 1.92738 11.276C1.86725 11.1964 1.83472 11.0994 1.83472 10.9997C1.83472 10.9 1.86725 10.8029 1.92738 10.7234C1.98751 10.6438 2.07195 10.586 2.16789 10.5588L7.79152 9.10774C8.10863 9.02598 8.39805 8.86077 8.6297 8.62928C8.86135 8.3978 9.02676 8.10849 9.10874 7.79143L10.5589 2.16781C10.5858 2.07149 10.6436 1.98663 10.7232 1.92618C10.8029 1.86573 10.9002 1.83301 11.0002 1.83301C11.1003 1.83301 11.1975 1.86573 11.2772 1.92618C11.3569 1.98663 11.4146 2.07149 11.4416 2.16781L12.8908 7.79143C12.9727 8.10866 13.138 8.39816 13.3697 8.62981C13.6013 8.86147 13.8908 9.02682 14.208 9.10865L19.8317 10.5579C19.9284 10.5845 20.0136 10.6422 20.0744 10.722C20.1352 10.8018 20.1681 10.8994 20.1681 10.9997C20.1681 11.1 20.1352 11.1976 20.0744 11.2774C20.0136 11.3572 19.9284 11.4148 19.8317 11.4415L14.208 12.8907C13.8908 12.9726 13.6013 13.1379 13.3697 13.3696C13.138 13.6012 12.9727 13.8907 12.8908 14.208L11.4407 19.8316C11.4137 19.9279 11.356 20.0128 11.2763 20.0732C11.1966 20.1337 11.0993 20.1664 10.9993 20.1664C10.8993 20.1664 10.802 20.1337 10.7223 20.0732C10.6426 20.0128 10.5849 19.9279 10.558 19.8316L9.10874 14.208Z" stroke="#A41F13" stroke-opacity="0.5" stroke-width="1.83329" stroke-linecap="round" stroke-linejoin="round"/>
<path d="M18.3329 2.75V6.41658" stroke="#A41F13" stroke-opacity="0.5" stroke-width="1.83329" stroke-linecap="round" stroke-linejoin="round"/>
<path d="M20.1662 4.58301H16.4996" stroke="#A41F13" stroke-opacity="0.5" stroke-width="1.83329" stroke-linecap="round" stroke-linejoin="round"/>
<path d="M3.66656 15.583V17.4163" stroke="#A41F13" stroke-opacity="0.5" stroke-width="1.83329" stroke-linecap="round" stroke-linejoin="round"/>
<path d="M4.58323 16.5H2.74994" stroke="#A41F13" stroke-opacity="0.5" stroke-width="1.83329" stroke-linecap="round" stroke-linejoin="round"/>
</svg>
