<svg width="12" height="12" viewBox="0 0 12 12" fill="none" xmlns="http://www.w3.org/2000/svg">
<g clip-path="url(#clip0_45_8924)">
<path d="M1.99916 6.99685C1.90458 6.99717 1.81186 6.97065 1.73175 6.92037C1.65164 6.87009 1.58745 6.79811 1.54663 6.71279C1.5058 6.62748 1.49002 6.53233 1.50112 6.43841C1.51222 6.34448 1.54974 6.25564 1.60932 6.18219L6.55726 1.08431C6.59438 1.04147 6.64495 1.01252 6.70069 1.00221C6.75643 0.991906 6.81402 1.00085 6.864 1.02759C6.91398 1.05432 6.95339 1.09726 6.97575 1.14934C6.99812 1.20142 7.00211 1.25956 6.98708 1.31422L6.02748 4.32296C5.99919 4.39869 5.98968 4.48016 5.99979 4.56037C6.00989 4.64058 6.03931 4.71714 6.0855 4.78348C6.1317 4.84983 6.1933 4.90398 6.26502 4.94129C6.33674 4.97859 6.41644 4.99794 6.49729 4.99768H9.99583C10.0904 4.99736 10.1831 5.02388 10.2632 5.07416C10.3433 5.12444 10.4075 5.19642 10.4484 5.28173C10.4892 5.36705 10.505 5.46219 10.4939 5.55612C10.4828 5.65004 10.4453 5.73889 10.3857 5.81234L5.43773 10.9102C5.40061 10.9531 5.35004 10.982 5.2943 10.9923C5.23856 11.0026 5.18097 10.9937 5.13099 10.9669C5.08101 10.9402 5.0416 10.8973 5.01923 10.8452C4.99687 10.7931 4.99287 10.735 5.00791 10.6803L5.96751 7.67157C5.9958 7.59584 6.00531 7.51437 5.9952 7.43416C5.98509 7.35395 5.95568 7.27739 5.90949 7.21105C5.86329 7.1447 5.80169 7.09055 5.72997 7.05324C5.65825 7.01594 5.57855 6.99659 5.4977 6.99685H1.99916Z" stroke="#6A6460" stroke-width="0.999583" stroke-linecap="round" stroke-linejoin="round"/>
</g>
<defs>
<clipPath id="clip0_45_8924">
<rect width="11.995" height="11.995" fill="white"/>
</clipPath>
</defs>
</svg>
