<svg width="16" height="16" viewBox="0 0 16 16" fill="none" xmlns="http://www.w3.org/2000/svg">
<path d="M13.3277 5.33105H2.66553C2.2975 5.33105 1.99915 5.62941 1.99915 5.99744V7.33022C1.99915 7.69825 2.2975 7.9966 2.66553 7.9966H13.3277C13.6958 7.9966 13.9941 7.69825 13.9941 7.33022V5.99744C13.9941 5.62941 13.6958 5.33105 13.3277 5.33105Z" stroke="white" stroke-width="1.33277" stroke-linecap="round" stroke-linejoin="round"/>
<path d="M7.99664 5.33105V13.9941" stroke="white" stroke-width="1.33277" stroke-linecap="round" stroke-linejoin="round"/>
<path d="M12.6614 7.99707V12.6618C12.6614 13.0153 12.521 13.3543 12.271 13.6042C12.0211 13.8541 11.6821 13.9946 11.3286 13.9946H4.66475C4.31127 13.9946 3.97227 13.8541 3.72233 13.6042C3.47239 13.3543 3.33197 13.0153 3.33197 12.6618V7.99707" stroke="white" stroke-width="1.33277" stroke-linecap="round" stroke-linejoin="round"/>
<path d="M4.99788 5.33125C4.55604 5.33125 4.13229 5.15573 3.81986 4.8433C3.50743 4.53087 3.33191 4.10713 3.33191 3.66528C3.33191 3.22344 3.50743 2.7997 3.81986 2.48727C4.13229 2.17484 4.55604 1.99931 4.99788 1.99931C5.64073 1.98811 6.27069 2.30003 6.80561 2.89438C7.34053 3.48873 7.75557 4.33794 7.99662 5.33125C8.23767 4.33794 8.65272 3.48873 9.18763 2.89438C9.72255 2.30003 10.3525 1.98811 10.9954 1.99931C11.4372 1.99931 11.861 2.17484 12.1734 2.48727C12.4858 2.7997 12.6613 3.22344 12.6613 3.66528C12.6613 4.10713 12.4858 4.53087 12.1734 4.8433C11.861 5.15573 11.4372 5.33125 10.9954 5.33125" stroke="white" stroke-width="1.33277" stroke-linecap="round" stroke-linejoin="round"/>
</svg>
