<svg width="26" height="26" viewBox="0 0 26 26" fill="none" xmlns="http://www.w3.org/2000/svg">
<path d="M15.671 21.9397V13.5818C15.671 13.3048 15.561 13.039 15.365 12.8431C15.1691 12.6472 14.9034 12.5371 14.6263 12.5371H10.4474C10.1703 12.5371 9.90457 12.6472 9.70864 12.8431C9.51272 13.039 9.40265 13.3048 9.40265 13.5818V21.9397" stroke="#6B7280" stroke-width="2.08946" stroke-linecap="round" stroke-linejoin="round"/>
<path d="M3.13428 10.4471C3.1342 10.1432 3.20044 9.84289 3.32838 9.56718C3.45631 9.29147 3.64285 9.04699 3.87499 8.85079L11.1881 2.58346C11.5652 2.26472 12.0431 2.08984 12.5368 2.08984C13.0306 2.08984 13.5085 2.26472 13.8856 2.58346L21.1987 8.85079C21.4308 9.04699 21.6174 9.29147 21.7453 9.56718C21.8733 9.84289 21.9395 10.1432 21.9394 10.4471V19.8497C21.9394 20.4039 21.7193 20.9353 21.3274 21.3272C20.9356 21.719 20.4041 21.9392 19.85 21.9392H5.22374C4.66958 21.9392 4.13812 21.719 3.74627 21.3272C3.35442 20.9353 3.13428 20.4039 3.13428 19.8497V10.4471Z" stroke="#6B7280" stroke-width="2.08946" stroke-linecap="round" stroke-linejoin="round"/>
</svg>
