<svg width="26" height="26" viewBox="0 0 26 26" fill="none" xmlns="http://www.w3.org/2000/svg">
<path d="M15.671 21.9392V13.5814C15.671 13.3043 15.561 13.0385 15.365 12.8426C15.1691 12.6467 14.9034 12.5366 14.6263 12.5366H10.4474C10.1703 12.5366 9.90457 12.6467 9.70864 12.8426C9.51272 13.0385 9.40265 13.3043 9.40265 13.5814V21.9392" stroke="#A41F13" stroke-width="2.08946" stroke-linecap="round" stroke-linejoin="round"/>
<path d="M3.13428 10.4467C3.1342 10.1427 3.20044 9.8424 3.32838 9.56669C3.45631 9.29098 3.64285 9.0465 3.87499 8.8503L11.1881 2.58297C11.5652 2.26423 12.0431 2.08936 12.5368 2.08936C13.0306 2.08936 13.5085 2.26423 13.8856 2.58297L21.1987 8.8503C21.4308 9.0465 21.6174 9.29098 21.7453 9.56669C21.8733 9.8424 21.9395 10.1427 21.9394 10.4467V19.8492C21.9394 20.4034 21.7193 20.9348 21.3274 21.3267C20.9356 21.7185 20.4041 21.9387 19.85 21.9387H5.22374C4.66958 21.9387 4.13812 21.7185 3.74627 21.3267C3.35442 20.9348 3.13428 20.4034 3.13428 19.8492V10.4467Z" stroke="#A41F13" stroke-width="2.08946" stroke-linecap="round" stroke-linejoin="round"/>
</svg>
