<svg width="22" height="22" viewBox="0 0 22 22" fill="none" xmlns="http://www.w3.org/2000/svg">
<g clip-path="url(#clip0_116_981)">
<path d="M9.41211 19.2495C9.57302 19.5282 9.80445 19.7596 10.0831 19.9205C10.3618 20.0814 10.6779 20.1661 10.9997 20.1661C11.3215 20.1661 11.6377 20.0814 11.9163 19.9205C12.195 19.7596 12.4265 19.5282 12.5874 19.2495" stroke="#4A5565" stroke-width="1.83329" stroke-linecap="round" stroke-linejoin="round"/>
<path d="M2.9901 14.0487C2.87036 14.18 2.79133 14.3432 2.76264 14.5185C2.73395 14.6939 2.75683 14.8737 2.8285 15.0363C2.90017 15.1989 3.01754 15.3371 3.16633 15.4342C3.31512 15.5313 3.48892 15.5831 3.66659 15.5832H18.3329C18.5106 15.5832 18.6844 15.5317 18.8333 15.4348C18.9822 15.3379 19.0997 15.1998 19.1715 15.0373C19.2434 14.8749 19.2665 14.695 19.2381 14.5197C19.2096 14.3443 19.1308 14.181 19.0112 14.0496C17.7921 12.7929 16.4996 11.4574 16.4996 7.33337C16.4996 5.87471 15.9202 4.4758 14.8888 3.44437C13.8573 2.41295 12.4584 1.8335 10.9998 1.8335C9.5411 1.8335 8.14218 2.41295 7.11075 3.44437C6.07933 4.4758 5.49988 5.87471 5.49988 7.33337C5.49988 11.4574 4.20649 12.7929 2.9901 14.0487Z" stroke="#4A5565" stroke-width="1.83329" stroke-linecap="round" stroke-linejoin="round"/>
</g>
<defs>
<clipPath id="clip0_116_981">
<rect width="21.9995" height="21.9995" fill="white"/>
</clipPath>
</defs>
</svg>
