<svg width="26" height="26" viewBox="0 0 26 26" fill="none" xmlns="http://www.w3.org/2000/svg">
<path d="M9.41211 23.248C9.57302 23.5267 9.80445 23.7581 10.0831 23.919C10.3618 24.0799 10.6779 24.1646 10.9997 24.1646C11.3215 24.1646 11.6377 24.0799 11.9163 23.919C12.195 23.7581 12.4265 23.5267 12.5874 23.248" stroke="#A41F13" stroke-width="1.83329" stroke-linecap="round" stroke-linejoin="round"/>
<path d="M2.9901 18.0473C2.87036 18.1785 2.79133 18.3417 2.76264 18.5171C2.73395 18.6924 2.75683 18.8723 2.8285 19.0348C2.90017 19.1974 3.01754 19.3357 3.16633 19.4327C3.31512 19.5298 3.48892 19.5816 3.66659 19.5817H18.3329C18.5106 19.5818 18.6844 19.5302 18.8333 19.4333C18.9822 19.3364 19.0997 19.1983 19.1715 19.0359C19.2434 18.8734 19.2665 18.6936 19.2381 18.5182C19.2096 18.3429 19.1308 18.1796 19.0112 18.0482C17.7921 16.7914 16.4996 15.4559 16.4996 11.3319C16.4996 9.87325 15.9202 8.47433 14.8888 7.44291C13.8573 6.41148 12.4584 5.83203 10.9998 5.83203C9.5411 5.83203 8.14218 6.41148 7.11075 7.44291C6.07933 8.47433 5.49988 9.87325 5.49988 11.3319C5.49988 15.4559 4.20649 16.7914 2.9901 18.0473Z" stroke="#A41F13" stroke-width="1.83329" stroke-linecap="round" stroke-linejoin="round"/>
<path d="M10.0045 7.99667C10.0045 3.58023 13.5847 0 18.0012 0C22.4176 0 25.9979 3.58023 25.9979 7.99667C25.9979 12.4131 22.4176 15.9933 18.0012 15.9933C13.5847 15.9933 10.0045 12.4131 10.0045 7.99667Z" fill="#FB2C36"/>
<path d="M17.9344 12.1154C17.2981 12.1154 16.7313 12.006 16.2341 11.7873C15.7398 11.5657 15.3492 11.2617 15.0623 10.8754C14.7782 10.4862 14.6319 10.0373 14.6233 9.52876H16.4813C16.4927 9.74183 16.5623 9.92933 16.6901 10.0913C16.8208 10.2504 16.9941 10.3739 17.21 10.462C17.4259 10.5501 17.6688 10.5941 17.9387 10.5941C18.2199 10.5941 18.4685 10.5444 18.6844 10.445C18.9003 10.3455 19.0694 10.2077 19.1915 10.0316C19.3137 9.85547 19.3748 9.65234 19.3748 9.42223C19.3748 9.18928 19.3094 8.98331 19.1787 8.80433C19.0509 8.62251 18.8662 8.48047 18.6248 8.3782C18.3861 8.27592 18.102 8.22479 17.7725 8.22479H16.9586V6.86967H17.7725C18.0509 6.86967 18.2966 6.82138 18.5097 6.72479C18.7256 6.6282 18.8932 6.49467 19.0126 6.32422C19.1319 6.15092 19.1915 5.94922 19.1915 5.71911C19.1915 5.50036 19.139 5.30859 19.0339 5.14382C18.9316 4.97621 18.7867 4.84553 18.5992 4.75178C18.4145 4.65803 18.1986 4.61115 17.9515 4.61115C17.7015 4.61115 17.4728 4.65661 17.2654 4.74751C17.058 4.83558 16.8918 4.962 16.7668 5.12678C16.6418 5.29155 16.5751 5.48473 16.5665 5.70632H14.7981C14.8066 5.20348 14.9501 4.7603 15.2285 4.37678C15.5069 3.99325 15.8819 3.69354 16.3535 3.47763C16.8279 3.25888 17.3634 3.1495 17.96 3.1495C18.5623 3.1495 19.0893 3.25888 19.541 3.47763C19.9927 3.69638 20.3435 3.99183 20.5935 4.36399C20.8464 4.73331 20.9714 5.14808 20.9685 5.60831C20.9714 6.09695 20.8194 6.50462 20.5126 6.83132C20.2086 7.15803 19.8123 7.36541 19.3236 7.45348V7.52166C19.9657 7.60405 20.4543 7.82706 20.7895 8.1907C21.1276 8.55149 21.2952 9.0032 21.2924 9.54581C21.2952 10.043 21.1518 10.4847 20.862 10.8711C20.5751 11.2575 20.1787 11.5614 19.6731 11.783C19.1674 12.0046 18.5878 12.1154 17.9344 12.1154Z" fill="white"/>
</svg>
