<svg width="23" height="23" viewBox="0 0 23 23" fill="none" xmlns="http://www.w3.org/2000/svg">
<path d="M14.6787 19.2657V17.4309C14.6787 16.4576 14.292 15.5242 13.6038 14.836C12.9156 14.1479 11.9822 13.7612 11.009 13.7612H5.5045C4.53124 13.7612 3.59785 14.1479 2.90966 14.836C2.22146 15.5242 1.83484 16.4576 1.83484 17.4309V19.2657" stroke="#292F36" stroke-width="1.5" stroke-linecap="round" stroke-linejoin="round"/>
<path d="M8.2567 10.0918C10.2834 10.0918 11.9264 8.4488 11.9264 6.4221C11.9264 4.3954 10.2834 2.75244 8.2567 2.75244C6.23 2.75244 4.58704 4.3954 4.58704 6.4221C4.58704 8.4488 6.23 10.0918 8.2567 10.0918Z" stroke="#292F36" stroke-width="1.5" stroke-linecap="round" stroke-linejoin="round"/>
<path d="M17.4309 7.33936V12.8438" stroke="#292F36" stroke-width="1.5" stroke-linecap="round" stroke-linejoin="round"/>
<path d="M20.1831 10.0918H14.6786" stroke="#292F36" stroke-width="1.5" stroke-linecap="round" stroke-linejoin="round"/>
</svg>
