<svg width="17" height="17" viewBox="0 0 17 17" fill="none" xmlns="http://www.w3.org/2000/svg">
<g clip-path="url(#clip0_47_10608)">
<path d="M15.5808 11.9827V14.1073C15.5816 14.3046 15.5412 14.4998 15.4621 14.6805C15.3831 14.8612 15.2672 15.0235 15.1219 15.1568C14.9766 15.2901 14.805 15.3917 14.6181 15.4549C14.4313 15.518 14.2333 15.5415 14.0368 15.5238C11.8575 15.287 9.76418 14.5423 7.92494 13.3495C6.21377 12.2622 4.76299 10.8114 3.67564 9.10024C2.47874 7.25264 1.73388 5.14909 1.50141 2.96C1.48372 2.76415 1.50699 2.56677 1.56976 2.38041C1.63252 2.19405 1.73341 2.02281 1.86598 1.87757C1.99856 1.73234 2.15992 1.6163 2.3398 1.53685C2.51967 1.4574 2.71412 1.41627 2.91077 1.41608H5.03542C5.37912 1.4127 5.71232 1.53441 5.97293 1.75853C6.23353 1.98265 6.40375 2.29388 6.45185 2.63422C6.54153 3.31415 6.70783 3.98176 6.9476 4.62431C7.04289 4.87779 7.06351 5.15328 7.00703 5.41813C6.95054 5.68298 6.81932 5.92609 6.6289 6.11864L5.72947 7.01808C6.73765 8.79113 8.20572 10.2592 9.97877 11.2674L10.8782 10.3679C11.0708 10.1775 11.3139 10.0463 11.5787 9.98982C11.8436 9.93334 12.1191 9.95396 12.3725 10.0492C13.0151 10.289 13.6827 10.4553 14.3626 10.545C14.7067 10.5935 15.0208 10.7668 15.2454 11.0319C15.47 11.297 15.5894 11.6354 15.5808 11.9827Z" stroke="#6A6460" stroke-width="1.41643" stroke-linecap="round" stroke-linejoin="round"/>
</g>
<defs>
<clipPath id="clip0_47_10608">
<rect width="16.9972" height="16.9972" fill="white"/>
</clipPath>
</defs>
</svg>
