<svg width="20" height="20" viewBox="0 0 20 20" fill="none" xmlns="http://www.w3.org/2000/svg">
<path d="M16.6597 6.66406H3.33195C2.8719 6.66406 2.49896 7.037 2.49896 7.49705V9.16302C2.49896 9.62307 2.8719 9.99601 3.33195 9.99601H16.6597C17.1198 9.99601 17.4927 9.62307 17.4927 9.16302V7.49705C17.4927 7.037 17.1198 6.66406 16.6597 6.66406Z" stroke="#7C3AED" stroke-width="1.66597" stroke-linecap="round" stroke-linejoin="round"/>
<path d="M9.99585 6.66406V17.4929" stroke="#7C3AED" stroke-width="1.66597" stroke-linecap="round" stroke-linejoin="round"/>
<path d="M15.8267 9.99609V15.827C15.8267 16.2689 15.6512 16.6926 15.3388 17.005C15.0264 17.3175 14.6026 17.493 14.1608 17.493H5.83089C5.38905 17.493 4.9653 17.3175 4.65287 17.005C4.34044 16.6926 4.16492 16.2689 4.16492 15.827V9.99609" stroke="#7C3AED" stroke-width="1.66597" stroke-linecap="round" stroke-linejoin="round"/>
<path d="M6.24742 6.66384C5.69511 6.66384 5.16543 6.44443 4.77489 6.0539C4.38435 5.66336 4.16495 5.13367 4.16495 4.58137C4.16495 4.02906 4.38435 3.49938 4.77489 3.10884C5.16543 2.7183 5.69511 2.4989 6.24742 2.4989C7.05099 2.4849 7.83844 2.87479 8.50709 3.61774C9.17574 4.36068 9.69455 5.42219 9.99586 6.66384C10.2972 5.42219 10.816 4.36068 11.4846 3.61774C12.1533 2.87479 12.9407 2.4849 13.7443 2.4989C14.2966 2.4989 14.8263 2.7183 15.2168 3.10884C15.6074 3.49938 15.8268 4.02906 15.8268 4.58137C15.8268 5.13367 15.6074 5.66336 15.2168 6.0539C14.8263 6.44443 14.2966 6.66384 13.7443 6.66384" stroke="#7C3AED" stroke-width="1.66597" stroke-linecap="round" stroke-linejoin="round"/>
</svg>
