<svg width="18" height="18" viewBox="0 0 18 18" fill="none" xmlns="http://www.w3.org/2000/svg">
<g clip-path="url(#clip0_161_1587)">
<path d="M8.99194 3.7468C8.99283 3.44709 8.93377 3.15023 8.81824 2.87368C8.70272 2.59713 8.53306 2.34647 8.31925 2.13645C8.10543 1.92643 7.85178 1.76128 7.57321 1.65072C7.29463 1.54017 6.99676 1.48643 6.69712 1.49268C6.39747 1.49892 6.1021 1.56502 5.82838 1.68709C5.55465 1.80916 5.3081 1.98473 5.10323 2.20348C4.89835 2.42223 4.73928 2.67974 4.63538 2.96087C4.53148 3.24199 4.48484 3.54105 4.49822 3.84046C4.05776 3.95372 3.64885 4.16571 3.30246 4.46039C2.95607 4.75508 2.68127 5.12472 2.49889 5.54133C2.31651 5.95794 2.23132 6.41058 2.24977 6.86499C2.26823 7.3194 2.38984 7.76365 2.60541 8.16409C2.22639 8.47202 1.92834 8.86788 1.73719 9.31726C1.54605 9.76664 1.4676 10.2559 1.50867 10.7425C1.54973 11.2291 1.70908 11.6983 1.97283 12.1093C2.23659 12.5203 2.59677 12.8606 3.02204 13.1007C2.96952 13.507 3.00086 13.9198 3.11412 14.3135C3.22738 14.7072 3.42015 15.0735 3.68054 15.3898C3.94092 15.7061 4.26338 15.9657 4.62801 16.1525C4.99264 16.3393 5.3917 16.4494 5.80053 16.4759C6.20937 16.5024 6.6193 16.4449 7.00501 16.3068C7.39073 16.1687 7.74403 15.9529 8.04311 15.6729C8.34219 15.3929 8.58069 15.0546 8.74389 14.6788C8.90708 14.303 8.99151 13.8978 8.99194 13.4881V3.7468Z" stroke="white" stroke-width="1.49866" stroke-linecap="round" stroke-linejoin="round"/>
<path d="M8.99195 3.7468C8.99107 3.44709 9.05013 3.15023 9.16565 2.87368C9.28118 2.59713 9.45083 2.34647 9.66465 2.13645C9.87846 1.92643 10.1321 1.76128 10.4107 1.65072C10.6893 1.54017 10.9871 1.48643 11.2868 1.49268C11.5864 1.49892 11.8818 1.56502 12.1555 1.68709C12.4292 1.80916 12.6758 1.98473 12.8807 2.20348C13.0855 2.42223 13.2446 2.67974 13.3485 2.96087C13.4524 3.24199 13.4991 3.54105 13.4857 3.84046C13.9261 3.95372 14.335 4.16571 14.6814 4.46039C15.0278 4.75508 15.3026 5.12472 15.485 5.54133C15.6674 5.95794 15.7526 6.41058 15.7341 6.86499C15.7157 7.3194 15.5941 7.76365 15.3785 8.16409C15.7575 8.47202 16.0556 8.86788 16.2467 9.31726C16.4378 9.76664 16.5163 10.2559 16.4752 10.7425C16.4342 11.2291 16.2748 11.6983 16.0111 12.1093C15.7473 12.5203 15.3871 12.8606 14.9619 13.1007C15.0144 13.507 14.983 13.9198 14.8698 14.3135C14.7565 14.7072 14.5637 15.0735 14.3034 15.3898C14.043 15.7061 13.7205 15.9657 13.3559 16.1525C12.9913 16.3393 12.5922 16.4494 12.1834 16.4759C11.7745 16.5024 11.3646 16.4449 10.9789 16.3068C10.5932 16.1687 10.2399 15.9529 9.94078 15.6729C9.6417 15.3929 9.4032 15.0546 9.24001 14.6788C9.07681 14.303 8.99239 13.8978 8.99195 13.4881V3.7468Z" stroke="white" stroke-width="1.49866" stroke-linecap="round" stroke-linejoin="round"/>
<path d="M11.2399 9.74146C10.6108 9.52015 10.0615 9.11726 9.66134 8.58375C9.2612 8.05023 9.02825 7.41005 8.99194 6.74414C8.95564 7.41005 8.72269 8.05023 8.32255 8.58375C7.92241 9.11726 7.37306 9.52015 6.74396 9.74146" stroke="white" stroke-width="1.49866" stroke-linecap="round" stroke-linejoin="round"/>
<path d="M13.1874 4.87017C13.3688 4.55589 13.4714 4.20238 13.4864 3.83984" stroke="white" stroke-width="1.49866" stroke-linecap="round" stroke-linejoin="round"/>
<path d="M4.49823 3.83984C4.51305 4.20232 4.61537 4.55582 4.79646 4.87017" stroke="white" stroke-width="1.49866" stroke-linecap="round" stroke-linejoin="round"/>
<path d="M2.60541 8.16392C2.74249 8.05228 2.88918 7.95298 3.04377 7.86719" stroke="white" stroke-width="1.49866" stroke-linecap="round" stroke-linejoin="round"/>
<path d="M14.9401 7.86719C15.0947 7.95298 15.2414 8.05228 15.3785 8.16392" stroke="white" stroke-width="1.49866" stroke-linecap="round" stroke-linejoin="round"/>
<path d="M4.49596 13.4882C3.97955 13.4885 3.47183 13.3553 3.02203 13.1016" stroke="white" stroke-width="1.49866" stroke-linecap="round" stroke-linejoin="round"/>
<path d="M14.9618 13.1016C14.512 13.3553 14.0043 13.4885 13.4879 13.4882" stroke="white" stroke-width="1.49866" stroke-linecap="round" stroke-linejoin="round"/>
</g>
<defs>
<clipPath id="clip0_161_1587">
<rect width="17.9839" height="17.9839" fill="white"/>
</clipPath>
</defs>
</svg>
