<svg width="20" height="20" viewBox="0 0 20 20" fill="none" xmlns="http://www.w3.org/2000/svg">
<path d="M2.49896 5.83097V4.165C2.49896 3.72315 2.67448 3.29941 2.98692 2.98698C3.29935 2.67455 3.72309 2.49902 4.16494 2.49902H5.83091" stroke="#1C3A5C" stroke-width="1.66597" stroke-linecap="round" stroke-linejoin="round"/>
<path d="M14.1608 2.49902H15.8267C16.2686 2.49902 16.6923 2.67455 17.0048 2.98698C17.3172 3.29941 17.4927 3.72315 17.4927 4.165V5.83097" stroke="#1C3A5C" stroke-width="1.66597" stroke-linecap="round" stroke-linejoin="round"/>
<path d="M17.4927 14.1606V15.8266C17.4927 16.2685 17.3172 16.6922 17.0048 17.0046C16.6923 17.3171 16.2686 17.4926 15.8267 17.4926H14.1608" stroke="#1C3A5C" stroke-width="1.66597" stroke-linecap="round" stroke-linejoin="round"/>
<path d="M5.83091 17.4926H4.16494C3.72309 17.4926 3.29935 17.3171 2.98692 17.0046C2.67448 16.6922 2.49896 16.2685 2.49896 15.8266V14.1606" stroke="#1C3A5C" stroke-width="1.66597" stroke-linecap="round" stroke-linejoin="round"/>
<path d="M6.66388 11.6616C6.66388 11.6616 7.91336 13.3276 9.99583 13.3276C12.0783 13.3276 13.3278 11.6616 13.3278 11.6616" stroke="#1C3A5C" stroke-width="1.66597" stroke-linecap="round" stroke-linejoin="round"/>
<path d="M7.49689 7.49707H7.50522" stroke="#1C3A5C" stroke-width="1.66597" stroke-linecap="round" stroke-linejoin="round"/>
<path d="M12.4948 7.49707H12.5031" stroke="#1C3A5C" stroke-width="1.66597" stroke-linecap="round" stroke-linejoin="round"/>
</svg>
