<svg width="16" height="16" viewBox="0 0 16 16" fill="none" xmlns="http://www.w3.org/2000/svg">
<g clip-path="url(#clip0_45_8852)">
<path d="M13.3277 8.66308C13.3277 11.995 10.9954 13.661 8.22321 14.6273C8.07805 14.6764 7.92037 14.6741 7.77673 14.6206C4.9979 13.661 2.66554 11.995 2.66554 8.66308V3.99837C2.66554 3.82163 2.73575 3.65213 2.86072 3.52716C2.9857 3.40219 3.15519 3.33198 3.33193 3.33198C4.66471 3.33198 6.33067 2.53232 7.49019 1.51941C7.63137 1.39879 7.81096 1.33252 7.99664 1.33252C8.18233 1.33252 8.36192 1.39879 8.5031 1.51941C9.66928 2.53898 11.3286 3.33198 12.6614 3.33198C12.8381 3.33198 13.0076 3.40219 13.1326 3.52716C13.2575 3.65213 13.3277 3.82163 13.3277 3.99837V8.66308Z" stroke="white" stroke-width="1.33277" stroke-linecap="round" stroke-linejoin="round"/>
</g>
<defs>
<clipPath id="clip0_45_8852">
<rect width="15.9933" height="15.9933" fill="white"/>
</clipPath>
</defs>
</svg>
