<svg width="17" height="17" viewBox="0 0 17 17" fill="none" xmlns="http://www.w3.org/2000/svg">
<g clip-path="url(#clip0_45_9471)">
<path d="M7.03752 10.9771C6.97429 10.732 6.84654 10.5084 6.66756 10.3294C6.48857 10.1504 6.2649 10.0226 6.01981 9.95941L1.6749 8.83901C1.60077 8.81797 1.53553 8.77332 1.48907 8.71185C1.44262 8.65037 1.41748 8.57542 1.41748 8.49836C1.41748 8.4213 1.44262 8.34635 1.48907 8.28487C1.53553 8.22339 1.60077 8.17875 1.6749 8.15771L6.01981 7.0366C6.26482 6.97343 6.48843 6.84579 6.6674 6.66694C6.84638 6.48809 6.97418 6.26456 7.03752 6.0196L8.15791 1.67469C8.17874 1.60027 8.22334 1.53471 8.28491 1.488C8.34648 1.4413 8.42164 1.41602 8.49892 1.41602C8.5762 1.41602 8.65136 1.4413 8.71293 1.488C8.7745 1.53471 8.8191 1.60027 8.83993 1.67469L9.95962 6.0196C10.0228 6.26469 10.1506 6.48837 10.3296 6.66735C10.5086 6.84633 10.7322 6.97408 10.9773 7.03731L15.3222 8.157C15.397 8.17761 15.4628 8.22216 15.5098 8.28382C15.5568 8.34549 15.5822 8.42085 15.5822 8.49836C15.5822 8.57586 15.5568 8.65123 15.5098 8.71289C15.4628 8.77456 15.397 8.81911 15.3222 8.83972L10.9773 9.95941C10.7322 10.0226 10.5086 10.1504 10.3296 10.3294C10.1506 10.5084 10.0228 10.732 9.95962 10.9771L8.83922 15.322C8.81839 15.3964 8.77379 15.462 8.71222 15.5087C8.65065 15.5554 8.57549 15.5807 8.49821 15.5807C8.42093 15.5807 8.34577 15.5554 8.2842 15.5087C8.22263 15.462 8.17803 15.3964 8.15721 15.322L7.03752 10.9771Z" stroke="white" stroke-width="1.41643" stroke-linecap="round" stroke-linejoin="round"/>
<path d="M14.1643 2.12451V4.95738" stroke="white" stroke-width="1.41643" stroke-linecap="round" stroke-linejoin="round"/>
<path d="M15.5808 3.54102H12.7479" stroke="white" stroke-width="1.41643" stroke-linecap="round" stroke-linejoin="round"/>
<path d="M2.83289 12.0396V13.456" stroke="white" stroke-width="1.41643" stroke-linecap="round" stroke-linejoin="round"/>
<path d="M3.54107 12.748H2.12463" stroke="white" stroke-width="1.41643" stroke-linecap="round" stroke-linejoin="round"/>
</g>
<defs>
<clipPath id="clip0_45_9471">
<rect width="16.9972" height="16.9972" fill="white"/>
</clipPath>
</defs>
</svg>
