<svg width="34" height="34" viewBox="0 0 34 34" fill="none" xmlns="http://www.w3.org/2000/svg">
<path d="M27.7683 18.0493C27.7683 24.9913 22.9088 28.4624 17.133 30.4756C16.8306 30.5781 16.5021 30.5732 16.2028 30.4617C10.4131 28.4624 5.55368 24.9913 5.55368 18.0493V8.33039C5.55368 7.96217 5.69996 7.60902 5.96034 7.34864C6.22071 7.08826 6.57386 6.94198 6.94209 6.94198C9.71892 6.94198 13.1899 5.27589 15.6058 3.1655C15.8999 2.9142 16.2741 2.77612 16.661 2.77612C17.0479 2.77612 17.422 2.9142 17.7162 3.1655C20.1459 5.28977 23.603 6.94198 26.3799 6.94198C26.7481 6.94198 27.1012 7.08826 27.3616 7.34864C27.622 7.60902 27.7683 7.96217 27.7683 8.33039V18.0493Z" stroke="#A41F13" stroke-width="2.77682" stroke-linecap="round" stroke-linejoin="round"/>
<path d="M12.4957 16.6609L15.2725 19.4377L20.8261 13.884" stroke="#A41F13" stroke-width="2.77682" stroke-linecap="round" stroke-linejoin="round"/>
</svg>
