<svg width="12" height="12" viewBox="0 0 12 12" fill="none" xmlns="http://www.w3.org/2000/svg">
<g clip-path="url(#clip0_45_8917)">
<path d="M1.03057 6.17118C0.988915 6.05897 0.988915 5.93554 1.03057 5.82333C1.43625 4.83967 2.12487 3.99861 3.00913 3.40679C3.89339 2.81496 4.93346 2.49902 5.9975 2.49902C7.06153 2.49902 8.10161 2.81496 8.98587 3.40679C9.87013 3.99861 10.5587 4.83967 10.9644 5.82333C11.0061 5.93554 11.0061 6.05897 10.9644 6.17118C10.5587 7.15485 9.87013 7.9959 8.98587 8.58773C8.10161 9.17955 7.06153 9.49549 5.9975 9.49549C4.93346 9.49549 3.89339 9.17955 3.00913 8.58773C2.12487 7.9959 1.43625 7.15485 1.03057 6.17118Z" stroke="#6A6460" stroke-width="0.999583" stroke-linecap="round" stroke-linejoin="round"/>
<path d="M5.9975 7.4968C6.82558 7.4968 7.49687 6.8255 7.49687 5.99742C7.49687 5.16934 6.82558 4.49805 5.9975 4.49805C5.16942 4.49805 4.49812 5.16934 4.49812 5.99742C4.49812 6.8255 5.16942 7.4968 5.9975 7.4968Z" stroke="#6A6460" stroke-width="0.999583" stroke-linecap="round" stroke-linejoin="round"/>
</g>
<defs>
<clipPath id="clip0_45_8917">
<rect width="11.995" height="11.995" fill="white"/>
</clipPath>
</defs>
</svg>
